<svg xmlns="http://www.w3.org/2000/svg" width="32" height="26" fill="none" viewBox="0 0 32 26">
    <path fill="#4957F4" fill-rule="evenodd" d="M28.564 1.05L17 3.63v20.951l12.436-2.776C30.35 21.602 31 20.79 31 19.854V3c0-1.28-1.186-2.23-2.436-1.952zM32 19.257V3c0-1.92-1.78-3.346-3.654-2.928L16 2.83H3c-1.657 0-3 1.343-3 3v17c0 1.657 1.343 3 3 3h26c1.657 0 3-1.343 3-3v-3.571zm-1 2.832c-.372.333-.832.577-1.346.692l-9.174 2.047H29c1.105 0 2-.895 2-2v-.74zm-15 2.74V3.828H3c-1.105 0-2 .896-2 2v17c0 1.105.895 2 2 2h13zm-12-17h9v1H4v-1zm0 4h9v1H4v-1zm9 4H4v1h9v-1zm-9 4h9v1H4v-1zM28.109 5.638l-8 1.785-.218-.976 8-1.785.218.976zm-8 5.785l8-1.785-.218-.976-8 1.785.218.976zm8 2.215l-8 1.785-.218-.976 8-1.785.218.976zm-8 5.785l8-1.785-.218-.976-8 1.785.218.976z" clip-rule="evenodd"/>
</svg>
