<svg xmlns="http://www.w3.org/2000/svg" width="32" height="38" fill="none" viewBox="0 0 32 38">
  <defs>
    <linearGradient id="paint0_linear" x1="16.556" x2=".227" y1="-10.688" y2="-5.933"
      gradientUnits="userSpaceOnUse">
      <stop stop-color="#4957F4" />
      <stop offset="1" stop-color="#6B49F4" />
    </linearGradient>
  </defs>
  <path fill="url(#paint0_linear)" fill-rule="evenodd"
    d="M20 1V0c.343 0 .677.034 1 .1 2.282.463 4 2.481 4 4.9v.771c3.106 2.114 5.372 5.255 6.396 8.875 1.045 3.696.726 7.644-.899 11.124-.783 1.677-1.844 3.191-3.126 4.486l2.473 2.47-.707.708-2.491-2.49c-1.214 1.082-2.595 1.981-4.102 2.656-.506.227-1.021.427-1.544.599V38h-1v-3.508c-2.81.725-5.781.677-8.593-.165-3.679-1.103-6.839-3.492-8.902-6.731C.442 24.355-.388 20.482.169 16.681c.296-2.025.976-3.957 1.985-5.7L.256 9.083l.708-.708 1.733 1.734c.41-.613.862-1.198 1.355-1.751L2.516 6.824l.708-.708L4.74 7.633c.256-.254.521-.5.796-.737.286-.247.58-.484.881-.709l-1.63-1.634.707-.706 1.755 1.758C9.837 3.915 12.873 3.001 15.994 3c1.352 0 2.698.17 4.006.503V1zm1 .126V21h3V5c0-1.864-1.275-3.43-3-3.874zM20 22V4.506c-1.305-.355-2.652-.535-4.006-.536-2.864 0-5.65.82-8.044 2.337l3.663 3.669c.345.344.618.752.804 1.201.187.45.283.931.283 1.418 0 .486-.096.968-.283 1.418-.122.294-.281.57-.473.823L20 22.888V22zm1 0v1.888l5.686 5.682c1.202-1.215 2.198-2.636 2.932-4.21 1.527-3.27 1.827-6.979.845-10.45-.9-3.185-2.825-5.976-5.463-7.948V22h-4zm-9.765-6.458L20 24.302v9.186c-2.71.748-5.592.726-8.314-.09-3.457-1.036-6.425-3.28-8.363-6.324-1.938-3.043-2.717-6.682-2.195-10.252.266-1.815.86-3.551 1.738-5.13l3.52 3.521.002.002c.695.689 1.634 1.075 2.612 1.075.811 0 1.595-.265 2.235-.748zM21 25.302v7.872c.387-.136.77-.29 1.148-.458 1.398-.627 2.68-1.459 3.81-2.458L21 25.302zM3.397 10.81c.402-.619.85-1.209 1.342-1.764l3.552 3.552-1.551 1.554-3.343-3.342zm2.029-2.491l3.571 3.571 1.557-1.56L7.11 6.88c-.322.237-.636.487-.94.75-.257.222-.505.451-.744.689zm2.055 6.506c.446.301.974.465 1.519.465.714 0 1.4-.282 1.907-.784.251-.251.45-.549.586-.877.136-.327.207-.679.207-1.034s-.07-.707-.207-1.035c-.071-.172-.16-.336-.265-.49L7.48 14.825zm-2.62 7.661c-.468-1.805-.49-3.696-.064-5.512l-.974-.228c-.462 1.973-.438 4.03.07 5.991.51 1.962 1.487 3.771 2.85 5.27 1.364 1.5 3.072 2.646 4.977 3.34 1.904.692 3.949.911 5.957.638l-.134-.99c-1.848.25-3.73.049-5.481-.588-1.753-.638-3.324-1.692-4.578-3.072-1.255-1.38-2.155-3.044-2.623-4.849z"
    clip-rule="evenodd" />
</svg>
