<svg xmlns="http://www.w3.org/2000/svg" width="32" height="36" fill="none" viewBox="0 0 32 36">
  <defs>
    <linearGradient id="paint0_linear" x1="16.556" x2=".371" y1="-10.125" y2="-5.151"
      gradientUnits="userSpaceOnUse">
      <stop stop-color="#4957F4" />
      <stop offset="1" stop-color="#6B49F4" />
    </linearGradient>
  </defs>
  <path fill="url(#paint0_linear)" fill-rule="evenodd"
    d="M3.89 3.89c.466-.468.84-1.01 1.11-1.599.27.59.644 1.131 1.11 1.598.468.467 1.01.841 1.599 1.111-.59.27-1.131.644-1.598 1.11C5.644 6.579 5.27 7.12 5 7.71c-.27-.59-.644-1.131-1.11-1.598C3.421 5.644 2.88 5.27 2.29 5c.59-.27 1.131-.644 1.598-1.11zm-.708-.708C4.026 2.338 4.5 1.193 4.5 0h1c0 1.193.474 2.338 1.318 3.182C7.662 4.026 8.807 4.5 10 4.5v1c-1.193 0-2.338.474-3.182 1.318C5.974 7.662 5.5 8.807 5.5 10h-1c0-1.193-.474-2.338-1.318-3.182C2.338 5.974 1.193 5.5 0 5.5v-1c1.193 0 2.338-.474 3.182-1.318zm24.293 4.293c.203-.204.38-.43.525-.672.146.242.322.468.525.672.204.203.43.38.672.525-.242.146-.468.322-.672.525-.203.204-.38.43-.525.672-.146-.242-.322-.468-.525-.672-.204-.203-.43-.38-.672-.525.242-.146.468-.322.672-.525zm-.707-.707c.469-.47.732-1.105.732-1.768h1c0 .663.263 1.299.732 1.768.47.469 1.105.732 1.768.732v1c-.663 0-1.299.263-1.768.732-.469.47-.732 1.105-.732 1.768h-1c0-.663-.263-1.299-.732-1.768-.47-.469-1.105-.732-1.768-.732v-1c.663 0 1.299-.263 1.768-.732zM15.49 10.314L0 20v16h32V20l-15.51-9.689V6.768L23.641 2H15.49v8.314zm0 1.591L7.404 20h8.086v-8.095zm1 9.095h-9.5v14h1.042c.681-.004 1.341-.098 1.968-.272V30c0-3.314 2.686-6 6-6s6 2.686 6 6v4.733c.62.17 1.274.263 1.948.267h1.042V21h-8.5zm0-1v-8.077L24.575 20H16.49zm0-16v1.566L20.339 3H16.49v1zm0 23.5c0 3.08 1.856 5.725 4.51 6.88V30c0-2.596-1.979-4.73-4.51-4.976V27.5zM11 30c0-2.59 1.968-4.719 4.49-4.974V27.5c0 3.072-1.847 5.712-4.49 6.872V30zm.994 5c1.843-.986 3.28-2.631 3.996-4.62.716 1.989 2.153 3.634 3.996 4.62h-7.992zM1 35V21h4.99v14H1zm.886-15H5.99l6.831-6.838L1.886 20zM25.99 35V21H31v14h-5.01zm0-15h4.123L19.11 13.127 25.99 20z"
    clip-rule="evenodd" />
</svg>
