<svg width="27" height="19" fill="none" xmlns="http://www.w3.org/2000/svg">
    <path fill-rule="evenodd" clip-rule="evenodd" d="M3 0h21v8.035a3.5 3.5 0 0 1 3 3.465V19h-.946a2.5 2.5 0 0 1-2.321-1.572L23.16 16H3.84l-.572 1.428A2.5 2.5 0 0 1 .946 19H0v-7.5a3.5 3.5 0 0 1 3-3.465V0zm19.762 15H26v-2H1v2h21.762zm1.476 1 .423 1.057A1.5 1.5 0 0 0 26 18V16h-1.762zM1 16h1.761l-.422 1.057A1.5 1.5 0 0 1 1 18V16zm21-7h1.5a2.5 2.5 0 0 1 2.5 2.5v.5H1v-.5A2.5 2.5 0 0 1 3.5 9H22zm0-1h1V1H4v7h1v-.5A2.5 2.5 0 0 1 7.5 5h12A2.5 2.5 0 0 1 22 7.5V8zM6 8h7V6H7.5A1.5 1.5 0 0 0 6 7.5V8zm8-2v2h7v-.5A1.5 1.5 0 0 0 19.5 6H14z" fill="#7F7F7F"/>
</svg>
