<svg version="1.1" xmlns="http://www.w3.org/2000/svg" xmlns:xlink="http://www.w3.org/1999/xlink" x="0px" y="0px"
	 viewBox="0 0 28.4 22.5" style="enable-background:new 0 0 28.4 22.5;" xml:space="preserve">
<path fill-rule="evenodd" clip-rule="evenodd" fill="#7F7F7F" d="M18.2,7.5c0,2.2-1.8,4-4,4s-4-1.8-4-4s1.8-4,4-4S18.2,5.3,18.2,7.5z M19.2,7.5c0,2.8-2.2,5-5,5s-5-2.2-5-5
	s2.2-5,5-5S19.2,4.7,19.2,7.5z M10.2,15.5h8c1.2,0,2.3,0.7,2.8,1.8l1.7,4.2h-17l1.7-4.2C7.9,16.2,9,15.5,10.2,15.5z M18.2,14.5
	c1.6,0,3.1,1,3.7,2.5l2.3,5.5h-20L6.5,17c0.6-1.5,2.1-2.5,3.7-2.5H18.2z"/>
</svg>
