<svg xmlns="http://www.w3.org/2000/svg" width="33" height="38" fill="none" viewBox="0 0 33 38">
  <defs>
    <linearGradient id="paint0_linear" x1="17.073" x2=".317" y1="-10.688" y2="-5.656"
      gradientUnits="userSpaceOnUse">
      <stop stop-color="#4957F4" />
      <stop offset="1" stop-color="#6B49F4" />
    </linearGradient>
  </defs>
  <path fill="url(#paint0_linear)" fill-rule="evenodd"
    d="M5.5 3.5c.42-.42.757-.908 1-1.438.243.53.58 1.018 1 1.438.42.42.908.757 1.438 1-.53.243-1.018.58-1.438 1-.42.42-.757.908-1 1.438-.243-.53-.58-1.018-1-1.438-.42-.42-.908-.757-1.438-1 .53-.243 1.018-.58 1.438-1zm-.636-.636C5.624 2.104 6.05 1.074 6.05 0h.9c0 1.074.427 2.104 1.186 2.864.76.76 1.79 1.186 2.864 1.186v.9c-1.074 0-2.104.427-2.864 1.186-.76.76-1.186 1.79-1.186 2.864h-.9c0-1.074-.427-2.104-1.186-2.864C4.104 5.376 3.074 4.95 2 4.95v-.9c1.074 0 2.104-.427 2.864-1.186zM27.11 16.11c.374-.373.673-.807.889-1.278.216.471.515.905.889 1.278.373.374.807.673 1.278.889-.471.216-.905.515-1.278.889-.374.373-.673.807-.889 1.278-.216-.471-.515-.905-.889-1.278-.373-.374-.807-.673-1.278-.889.471-.216.905-.515 1.278-.889zm-.565-.565C27.22 14.87 27.6 13.955 27.6 13h.8c0 .955.38 1.87 1.054 2.546.675.675 1.591 1.054 2.546 1.054v.8c-.955 0-1.87.38-2.546 1.054C28.78 19.13 28.4 20.045 28.4 21h-.8c0-.955-.38-1.87-1.054-2.546C25.87 17.78 24.955 17.4 24 17.4v-.8c.955 0 1.87-.38 2.546-1.054zM17 13h4v-2.232c-1.258-.445-2.601-.708-4-.759V13zm6.482-1.057c-.476-.288-.97-.547-1.482-.776V23h7.99c-.022-.622-.086-1.232-.19-1.829L29.77 21h1.015c.114.653.183 1.32.206 2H31v1h-.009c-.263 7.777-6.65 14-14.491 14-7.84 0-14.228-6.223-14.492-14H2v-1h.008C2.266 15.39 8.39 9.266 16 9.008V0h1v9.008c2.556.087 4.945.836 7 2.08.343.208.677.429 1 .663v1.26c-.48-.39-.987-.746-1.518-1.068zM27 24h2.99c-.05 1.398-.313 2.742-.758 4H27v-4zm0 5h1.832c-.668 1.497-1.602 2.85-2.74 4H22v-4h5zm-5 5h2.986c-.906.733-1.909 1.351-2.986 1.833V34zm-1 0v2.232c-1.407.497-2.922.768-4.5.768-1.578 0-3.092-.27-4.5-.768V34h9zm-10 0v1.833c-1.497-.67-2.85-1.603-4-2.741V29h4v5zm-5-5v2.986C4.221 29.788 3.12 27.021 3.01 24H6v5zm0-6H3.01c.05-1.398.313-2.742.758-4H6v4zm.908-9c-1.138 1.15-2.072 2.503-2.74 4H11v-4H6.908zM11 13H8.014c2.198-1.778 4.965-2.88 7.986-2.99V13h-5zm10 20v-9h-4v9h4zm0-10v-4h-4v4h4zm0-5h-4v-4h4v4zm1 6v4h4v-4h-4zm-11 4H7v-4h4v4zm0-5H7v-4h4v4zm5 10h-4v-4h4v4zm0-5h-4v-9h4v9zm0-10h-4v-4h4v4zM1 12c.552 0 1-.448 1-1s-.448-1-1-1-1 .448-1 1 .448 1 1 1zm29 24c0 .552-.448 1-1 1s-1-.448-1-1 .448-1 1-1 1 .448 1 1zm2-25c.552 0 1-.448 1-1s-.448-1-1-1-1 .448-1 1 .448 1 1 1z"
    clip-rule="evenodd" />
</svg>
