<svg xmlns="http://www.w3.org/2000/svg" width="31" height="31" fill="none" viewBox="0 0 31 31">
  <defs>
    <linearGradient id="paint0_linear" x1="16.038" x2=".711" y1="-8.72" y2="-3.42"
      gradientUnits="userSpaceOnUse">
      <stop stop-color="#4957F4" />
      <stop offset="1" stop-color="#6B49F4" />
    </linearGradient>
  </defs>
  <path fill="url(#paint0_linear)" fill-rule="evenodd"
    d="M18.224 5.671c-.215-.06-.431-.114-.65-.16-.679-.143-1.383-.218-2.104-.218-.189 0-.376.005-.562.015-.711.043-1.416.162-2.103.354l-.647.18c-.591.203-1.159.459-1.696.762l.003.005c-1.616.909-2.954 2.24-3.87 3.851l-.14.246c-.262.491-.485 1.006-.665 1.54l-.149.532c-.248.887-.376 1.804-.381 2.725.005.921.133 1.838.381 2.725l.15.532c.21.625.479 1.223.8 1.788l.004-.002c.916 1.611 2.254 2.943 3.87 3.851l.319.18c.436.225.89.42 1.36.582v-.002l.66.184c.875.245 1.778.37 2.686.372.235 0 .469-.009.7-.025.688-.048 1.37-.168 2.034-.356l.348-.099c.682-.217 1.332-.503 1.943-.851l-.002-.004c.786-.446 1.506-.992 2.143-1.622 1.16-1.15 2.047-2.577 2.552-4.174l.101-.356c.04-.14.077-.282.111-.424.17-.739.26-1.508.26-2.299 0-.79-.09-1.56-.26-2.299-.034-.142-.07-.283-.11-.424l-.103-.356c-.505-1.6-1.394-3.03-2.558-4.18-.635-.628-1.353-1.172-2.136-1.616l-.253-.144c-.568-.302-1.168-.552-1.794-.744l-.242-.069zm-6.04-.889c-.659.202-1.293.463-1.895.777L6.754 2.332 2.33 6.757l3.218 3.526c-.314.596-.576 1.224-.78 1.877L0 12.375v6.256l4.767.215c.204.653.466 1.281.78 1.877L2.329 24.25l4.425 4.425 3.535-3.227c.602.314 1.236.575 1.896.777l.184 4.78h6.26l.214-4.807c.643-.203 1.26-.462 1.847-.77l3.556 3.248 4.425-4.426-3.254-3.572c.303-.582.557-1.194.756-1.83L31 18.63v-6.256l-4.827-.215c-.199-.637-.452-1.249-.756-1.83l3.254-3.573-4.425-4.425L20.69 5.58c-.587-.31-1.204-.568-1.847-.77L18.628 0h-6.26l-.183 4.782zM6.787 3.714l2.598 2.373c-1.319.855-2.447 1.979-3.306 3.294L3.71 6.79l3.075-3.075zM1 13.331l3.502-.158c-.158.752-.242 1.531-.242 2.33 0 .799.084 1.578.242 2.33L1 17.675v-4.344zm2.711 10.886l2.367-2.592c.859 1.316 1.987 2.44 3.306 3.294l-2.598 2.373-3.075-3.075zm9.62 5.786l-.135-3.52c.734.15 1.495.23 2.274.23h.03c.238 0 .476-.008.712-.024.551-.036 1.092-.112 1.618-.225l-.158 3.54h-4.34zm10.883-2.711l-2.622-2.396c.637-.417 1.23-.896 1.768-1.43.575-.568 1.089-1.199 1.53-1.882l2.399 2.633-3.075 3.075zm.677-17.87c-.444-.686-.96-1.32-1.54-1.89-.536-.53-1.125-1.007-1.76-1.421l2.623-2.396 3.075 3.074-2.398 2.633zM17.67 1l.16 3.542-.12-.025c-.726-.15-1.467-.226-2.21-.227v.003h-.002V4.29c-.215 0-.43.007-.644.02-.565.03-1.12.103-1.66.214L13.332 1h4.34zm8.768 16.834c.335-1.536.335-3.126 0-4.662l3.561.16v4.343l-3.561.159zm-8.75-6.19H13.26l-2.208 3.829 2.208 3.84h4.428l2.208-3.84-2.208-3.83zm-5.482 3.83l1.632-2.83h3.272l1.632 2.83-1.632 2.84h-3.272l-1.632-2.84z"
    clip-rule="evenodd" />
</svg>
