<svg width="21" height="20" fill="none" xmlns="http://www.w3.org/2000/svg">
    <rect x=".999" y=".5" width="19" height="19" rx="3.5" fill="#7F7F7F" stroke="#4957F4"/>
    <mask id="a" style="mask-type:alpha" maskUnits="userSpaceOnUse" x="0" y="0" width="21" height="20">
        <path fill-rule="evenodd" clip-rule="evenodd" d="M4.33 0C2.106 0 .304 1.768.304 3.949V16.05C.304 18.232 2.106 20 4.33 20h12.34c2.223 0 4.026-1.768 4.026-3.949V3.949C20.696 1.768 18.893 0 16.669 0" fill="#fff"/>
    </mask>
    <g mask="url(#a)">
        <path fill-rule="evenodd" clip-rule="evenodd" d="M1.527 8.163c0 1.808.292 3.499 1.224 4.898v-1.225c0-1.516 1.223-2.565 2.447-3.265-1.282.467-2.68.175-3.67-.408z" fill="#fff"/>
    </g>
    <mask id="b" style="mask-type:alpha" maskUnits="userSpaceOnUse" x="0" y="0" width="21" height="20">
        <path fill-rule="evenodd" clip-rule="evenodd" d="M4.33 0C2.106 0 .304 1.768.304 3.949V16.05C.304 18.232 2.106 20 4.33 20h12.34c2.223 0 4.026-1.768 4.026-3.949V3.949C20.696 1.768 18.893 0 16.669 0H4.33z" fill="#fff"/>
    </mask>
    <g mask="url(#b)">
        <path fill-rule="evenodd" clip-rule="evenodd" d="M1.12 6.643c.338.196.789.294 1.296.245.395.244.96-.44 1.523-.44.846-.098 1.918-.196 2.482.44l-.282-.49c-.79-.048-1.466-.293-2.087-.587-1.24-.489-1.861 1.077-2.933.832zm1.256.295H1.94c-.062-.212.624-.581.812-.317l-.375.317z" fill="#fff"/>
    </g>
    <mask id="c" style="mask-type:alpha" maskUnits="userSpaceOnUse" x="0" y="0" width="21" height="20">
        <path fill-rule="evenodd" clip-rule="evenodd" d="M4.33 0C2.106 0 .304 1.768.304 3.949V16.05C.304 18.232 2.106 20 4.33 20h12.34c2.223 0 4.026-1.768 4.026-3.949V3.949C20.696 1.768 18.893 0 16.669 0H4.33z" fill="#fff"/>
    </mask>
    <g mask="url(#c)">
        <path fill-rule="evenodd" clip-rule="evenodd" d="M.304 3.854c.389.114.778.229 1.167.229.834-.344 1.057-1.031.723-1.948A3.07 3.07 0 0 0 .304.818v3.036z" fill="#fff"/>
    </g>
    <mask id="d" style="mask-type:alpha" maskUnits="userSpaceOnUse" x="0" y="0" width="21" height="20">
        <path fill-rule="evenodd" clip-rule="evenodd" d="M4.33 0C2.106 0 .304 1.768.304 3.949V16.05C.304 18.232 2.106 20 4.33 20h12.34c2.223 0 4.026-1.768 4.026-3.949V3.949C20.696 1.768 18.893 0 16.669 0H4.33z" fill="#fff"/>
    </mask>
    <g mask="url(#d)">
        <path fill-rule="evenodd" clip-rule="evenodd" d="M6.199 20.001c.113-.115.282-.287.394-.46 2.252-2.984-2.14-4.706-2.027-7.576.113-1.148.732-2.009 1.464-2.927l-.056-.057c-.676.688-.958 1.148-1.408 1.836-1.351 2.813.563 6.716-1.408 9.127l3.04.057z" fill="#fff"/>
    </g>
    <mask id="e" style="mask-type:alpha" maskUnits="userSpaceOnUse" x="0" y="0" width="21" height="20">
        <path fill-rule="evenodd" clip-rule="evenodd" d="M4.33 0C2.106 0 .304 1.768.304 3.949V16.05C.304 18.232 2.106 20 4.33 20h12.34c2.223 0 4.026-1.768 4.026-3.949V3.949C20.696 1.768 18.893 0 16.669 0" fill="#fff"/>
    </mask>
    <g mask="url(#e)">
        <path fill-rule="evenodd" clip-rule="evenodd" d="M15.54 10c0 4.091-1.97 7.67-5.04 10h10.196V0H10.5a12.406 12.406 0 0 1 5.04 10z" fill="#fff"/>
    </g>
    <mask id="f" style="mask-type:alpha" maskUnits="userSpaceOnUse" x="0" y="0" width="21" height="20">
        <path fill-rule="evenodd" clip-rule="evenodd" d="M4.33 0C2.106 0 .304 1.768.304 3.949V16.05C.304 18.232 2.106 20 4.33 20h12.34c2.223 0 4.026-1.768 4.026-3.949V3.949C20.696 1.768 18.893 0 16.669 0H4.33z" fill="#fff"/>
    </mask>
    <g mask="url(#f)">
        <path fill-rule="evenodd" clip-rule="evenodd" d="M.364 20h1.824l.426-.391c2.492-3.131-.487-5.312-2.31-7.772L.364 20z" fill="#fff"/>
    </g>
    <mask id="g" style="mask-type:alpha" maskUnits="userSpaceOnUse" x="0" y="0" width="21" height="20">
        <path fill-rule="evenodd" clip-rule="evenodd" d="M4.33 0C2.106 0 .304 1.768.304 3.949V16.05C.304 18.232 2.106 20 4.33 20h12.34c2.223 0 4.026-1.768 4.026-3.949V3.949C20.696 1.768 18.893 0 16.669 0" fill="#fff"/>
    </mask>
    <g mask="url(#g)">
        <path fill-rule="evenodd" clip-rule="evenodd" d="M4.99 0H.304v.332c.451.055.96.221 1.355.387.96.554 1.694 1.44 1.581 2.546l2.09-.221c.282-.664.394-1.716.112-2.27C5.33.444 5.16.167 4.99 0z" fill="#fff"/>
    </g>
    <mask id="h" style="mask-type:alpha" maskUnits="userSpaceOnUse" x="0" y="0" width="21" height="20">
        <path fill-rule="evenodd" clip-rule="evenodd" d="M4.33 0C2.106 0 .304 1.768.304 3.949V16.05C.304 18.232 2.106 20 4.33 20h12.34c2.223 0 4.026-1.768 4.026-3.949V3.949C20.696 1.768 18.893 0 16.669 0H4.33z" fill="#fff"/>
    </mask>
    <g mask="url(#h)">
        <path fill-rule="evenodd" clip-rule="evenodd" d="M6.014.055c.481.607.481 1.38.541 1.986.903-.607 1.986-.993 3.13-.717C8.901.772 8.36.33 7.397 0L6.014.055z" fill="#fff"/>
    </g>
    <mask id="i" style="mask-type:alpha" maskUnits="userSpaceOnUse" x="0" y="0" width="21" height="20">
        <path fill-rule="evenodd" clip-rule="evenodd" d="M4.33 0C2.106 0 .304 1.768.304 3.949V16.05C.304 18.232 2.106 20 4.33 20h12.34c2.223 0 4.026-1.768 4.026-3.949V3.949C20.696 1.768 18.893 0 16.669 0" fill="#fff"/>
    </mask>
    <g mask="url(#i)">
        <path fill-rule="evenodd" clip-rule="evenodd" d="M12.047 14.376c.226-1.894.056-3.903-1.302-5.223-.283-.058-.68.115-.906-.172-.623.574-1.415.803-1.981 1.435-.623.172-1.246-.23-1.868-.345v-.23c-.85.575-.623 1.723-.793 2.584.227.975 1.302 1.377 1.982 1.951 1.075.172 2.037-.287 2.943-.631.17.172.396.287.283.516-.736 1.033-1.811 1.493-3.057 1.378.736 1.435.227 3.1-.566 4.362h.736c2.265-1.033 4.36-2.64 4.529-5.625zm-4.199-.09c-.3-.232-.18-.639-.18-.93l.18-.174c.3.93 1.082-.174 1.682-.058.3-.116.18-.523.481-.465.48 1.453-1.322 1.162-2.163 1.627zm2.221-4.221-.17.475-.225-.594c-.508.119-1.015.297-1.298.89-.056.178.057.475-.112.594-.339-.06-.17-.653-.17-1.009.395-.415 1.467-1.306 1.862-.95.113.06.17.357.113.594z" fill="#fff"/>
    </g>
    <mask id="j" style="mask-type:alpha" maskUnits="userSpaceOnUse" x="0" y="0" width="21" height="20">
        <path fill-rule="evenodd" clip-rule="evenodd" d="M4.33 0C2.106 0 .304 1.768.304 3.949V16.05C.304 18.232 2.106 20 4.33 20h12.34c2.223 0 4.026-1.768 4.026-3.949V3.949C20.696 1.768 18.893 0 16.669 0" fill="#fff"/>
    </mask>
    <g mask="url(#j)">
        <path fill-rule="evenodd" clip-rule="evenodd" d="M13.809 6.923c-.625-2.155-2.557-5.047-5.114-4.877-.966.057-1.932.794-2.273 1.36.682.398 1.42.965 2.046 1.532-.057.227.113.51-.171.624-.34-.284-.625-.964-1.08-.738.341.738 1.25.794 1.932.964.285.284.17.738.74.51.283.058.397.398.454.625-.455.85-1.705.283-2.387.453.568.227 1.193.284 1.705.624.511.34.682-.454.91-.737.908.227.397 1.19.795 1.7 1.932 1.986 1.534 5.501.568 7.77 2.67-2.325 2.443-7.656 1.875-9.81z" fill="#fff"/>
    </g>
    <rect x=".999" y=".5" width="19" height="19" rx="3.5" stroke="#7F7F7F"/>
</svg>
